<svg xmlns="http://www.w3.org/2000/svg" width="1120" height="520" viewBox="0 0 1120 520">
<rect width="100%" height="100%" fill="#fbfaf7"/>
<text x="32" y="34" font-family="serif" font-size="23" font-weight="700" fill="#222">d8 transition sweep: identity c=1 vs Top-Aware c=0.5</text>
<rect x="70" y="76" width="440" height="360" fill="#fff" stroke="#ddd6c8"/>
<text x="70" y="60" font-family="sans-serif" font-size="15" font-weight="700">Best-BPB delta: c=0.5 - identity</text>
<line x1="70" y1="194.9" x2="510" y2="194.9" stroke="#333" stroke-width="1.2"/>
<line x1="70" y1="76.0" x2="510" y2="76.0" stroke="#eee8dc"/>
<text x="62" y="80.0" text-anchor="end" font-family="monospace" font-size="10" fill="#746b5d">+0.020</text>
<line x1="70" y1="166.0" x2="510" y2="166.0" stroke="#eee8dc"/>
<text x="62" y="170.0" text-anchor="end" font-family="monospace" font-size="10" fill="#746b5d">+0.005</text>
<line x1="70" y1="256.0" x2="510" y2="256.0" stroke="#eee8dc"/>
<text x="62" y="260.0" text-anchor="end" font-family="monospace" font-size="10" fill="#746b5d">-0.010</text>
<line x1="70" y1="346.0" x2="510" y2="346.0" stroke="#eee8dc"/>
<text x="62" y="350.0" text-anchor="end" font-family="monospace" font-size="10" fill="#746b5d">-0.025</text>
<line x1="70" y1="436.0" x2="510" y2="436.0" stroke="#eee8dc"/>
<text x="62" y="440.0" text-anchor="end" font-family="monospace" font-size="10" fill="#746b5d">-0.041</text>
<polyline points="70.0,186.5 246.0,199.0 334.0,111.6 422.0,386.8 510.0,400.4" fill="none" stroke="#c94f1a" stroke-width="3"/>
<circle cx="70.0" cy="186.5" r="5" fill="#174a7c"/>
<text x="70.0" y="176.5" text-anchor="middle" font-family="monospace" font-size="10" fill="#222">+0.001</text>
<text x="70.0" y="455.0" text-anchor="middle" font-family="monospace" font-size="10" fill="#514941">256K</text>
<circle cx="246.0" cy="199.0" r="5" fill="#c94f1a"/>
<text x="246.0" y="189.0" text-anchor="middle" font-family="monospace" font-size="10" fill="#222">-0.001</text>
<text x="246.0" y="455.0" text-anchor="middle" font-family="monospace" font-size="10" fill="#514941">1024K</text>
<circle cx="334.0" cy="111.6" r="5" fill="#174a7c"/>
<text x="334.0" y="101.6" text-anchor="middle" font-family="monospace" font-size="10" fill="#222">+0.014</text>
<text x="334.0" y="455.0" text-anchor="middle" font-family="monospace" font-size="10" fill="#514941">2048K</text>
<circle cx="422.0" cy="386.8" r="5" fill="#c94f1a"/>
<text x="422.0" y="376.8" text-anchor="middle" font-family="monospace" font-size="10" fill="#222">-0.032</text>
<text x="422.0" y="455.0" text-anchor="middle" font-family="monospace" font-size="10" fill="#514941">4096K</text>
<circle cx="510.0" cy="400.4" r="5" fill="#c94f1a"/>
<text x="510.0" y="390.4" text-anchor="middle" font-family="monospace" font-size="10" fill="#222">-0.035</text>
<text x="510.0" y="455.0" text-anchor="middle" font-family="monospace" font-size="10" fill="#514941">8192K</text>
<text x="560" y="60" font-family="sans-serif" font-size="15" font-weight="700">Best rows</text>
<rect x="560" y="76" width="500" height="360" fill="#fff" stroke="#ddd6c8"/>
<text x="578" y="102" font-family="sans-serif" font-size="12" font-weight="700" fill="#222">batch</text>
<text x="676" y="102" font-family="sans-serif" font-size="12" font-weight="700" fill="#222">identity</text>
<text x="834" y="102" font-family="sans-serif" font-size="12" font-weight="700" fill="#222">c=0.5</text>
<text x="986" y="102" font-family="sans-serif" font-size="12" font-weight="700" fill="#222">winner</text>
<line x1="560" y1="110" x2="1060" y2="110" stroke="#eee8dc"/>
<text x="578" y="134" font-family="monospace" font-size="12" fill="#222">256K</text>
<text x="676" y="134" font-family="monospace" font-size="12" fill="#222">0.9677 @ 0.04</text>
<text x="834" y="134" font-family="monospace" font-size="12" fill="#222">0.9691 @ 0.02</text>
<text x="986" y="134" font-family="monospace" font-size="12" fill="#222">identity</text>
<line x1="560" y1="164" x2="1060" y2="164" stroke="#eee8dc"/>
<text x="578" y="188" font-family="monospace" font-size="12" fill="#222">1024K</text>
<text x="676" y="188" font-family="monospace" font-size="12" fill="#222">1.0106 @ 0.02</text>
<text x="834" y="188" font-family="monospace" font-size="12" fill="#222">1.0099 @ 0.08</text>
<text x="986" y="188" font-family="monospace" font-size="12" fill="#222">c=0.5</text>
<line x1="560" y1="218" x2="1060" y2="218" stroke="#eee8dc"/>
<text x="578" y="242" font-family="monospace" font-size="12" fill="#222">2048K</text>
<text x="676" y="242" font-family="monospace" font-size="12" fill="#222">1.0685 @ 0.08</text>
<text x="834" y="242" font-family="monospace" font-size="12" fill="#222">1.0825 @ 0.08</text>
<text x="986" y="242" font-family="monospace" font-size="12" fill="#222">identity</text>
<line x1="560" y1="272" x2="1060" y2="272" stroke="#eee8dc"/>
<text x="578" y="296" font-family="monospace" font-size="12" fill="#222">4096K</text>
<text x="676" y="296" font-family="monospace" font-size="12" fill="#222">1.2068 @ 0.04</text>
<text x="834" y="296" font-family="monospace" font-size="12" fill="#222">1.1745 @ 0.02</text>
<text x="986" y="296" font-family="monospace" font-size="12" fill="#222">c=0.5</text>
<line x1="560" y1="326" x2="1060" y2="326" stroke="#eee8dc"/>
<text x="578" y="350" font-family="monospace" font-size="12" fill="#222">8192K</text>
<text x="676" y="350" font-family="monospace" font-size="12" fill="#222">1.4564 @ 0.02</text>
<text x="834" y="350" font-family="monospace" font-size="12" fill="#222">1.4218 @ 0.02</text>
<text x="986" y="350" font-family="monospace" font-size="12" fill="#222">c=0.5</text>
<text x="560.0" y="502" text-anchor="middle" font-family="sans-serif" font-size="12" fill="#554d44">Negative delta means Top-Aware c=0.5 wins. 2M has explicit lr=0.16 boundary closure.</text>
</svg>