<svg xmlns="http://www.w3.org/2000/svg" width="1170" height="520" viewBox="0 0 1170 520">
<rect width="100%" height="100%" fill="white"/>
<style>text{font-family:-apple-system,BlinkMacSystemFont,Segoe UI,sans-serif;fill:#202124} .small{font-size:11px;fill:#5f6368} .title{font-size:18px;font-weight:700} .subtitle{font-size:12px;fill:#5f6368} .axis{stroke:#555;stroke-width:1} .grid{stroke:#ddd;stroke-width:.7} .legend{font-size:12px}</style>

<text x="24" y="32" class="title">Catalog full/historical: optimal learning rate</text>
<line x1="90.9" x2="90.9" y1="80" y2="400" class="grid"/><text x="90.9" y="418" class="small" text-anchor="middle">32K</text>
<line x1="199.6" x2="199.6" y1="80" y2="400" class="grid"/><text x="199.6" y="418" class="small" text-anchor="middle">64K</text>
<line x1="308.3" x2="308.3" y1="80" y2="400" class="grid"/><text x="308.3" y="418" class="small" text-anchor="middle">128K</text>
<line x1="417.0" x2="417.0" y1="80" y2="400" class="grid"/><text x="417.0" y="418" class="small" text-anchor="middle">256K</text>
<line x1="525.7" x2="525.7" y1="80" y2="400" class="grid"/><text x="525.7" y="418" class="small" text-anchor="middle">512K</text>
<line x1="634.3" x2="634.3" y1="80" y2="400" class="grid"/><text x="634.3" y="418" class="small" text-anchor="middle">1M</text>
<line x1="851.7" x2="851.7" y1="80" y2="400" class="grid"/><text x="851.7" y="418" class="small" text-anchor="middle">4M</text>
<line x1="960.4" x2="960.4" y1="80" y2="400" class="grid"/><text x="960.4" y="418" class="small" text-anchor="middle">8M</text>
<line x1="1069.1" x2="1069.1" y1="80" y2="400" class="grid"/><text x="1069.1" y="418" class="small" text-anchor="middle">16M</text>
<line x1="80" x2="1080" y1="400.0" y2="400.0" class="grid"/><text x="72" y="403.0" class="small" text-anchor="end">0.00423373</text>
<line x1="80" x2="1080" y1="320.0" y2="320.0" class="grid"/><text x="72" y="323.0" class="small" text-anchor="end">0.00773782</text>
<line x1="80" x2="1080" y1="240.0" y2="240.0" class="grid"/><text x="72" y="243.0" class="small" text-anchor="end">0.0141421</text>
<line x1="80" x2="1080" y1="160.0" y2="160.0" class="grid"/><text x="72" y="163.0" class="small" text-anchor="end">0.0258471</text>
<line x1="80" x2="1080" y1="80.0" y2="80.0" class="grid"/><text x="72" y="83.0" class="small" text-anchor="end">0.0472397</text>
<line x1="80" x2="80" y1="80" y2="400" class="axis"/><line x1="80" x2="1080" y1="400" y2="400" class="axis"/>
<polyline fill="none" stroke="#333333" stroke-width="2" points="308.3,286.0 417.0,286.0 525.7,286.0 634.3,194.0 851.7,102.1 1069.1,102.1"/>
<circle cx="308.3" cy="286.0" r="4.8" fill="#333333" stroke="#333333" stroke-width="1.2"/>
<circle cx="417.0" cy="286.0" r="4.8" fill="#333333" stroke="#333333" stroke-width="1.2"/>
<circle cx="525.7" cy="286.0" r="4.8" fill="#333333" stroke="#333333" stroke-width="1.2"/>
<circle cx="634.3" cy="194.0" r="4.8" fill="#333333" stroke="#333333" stroke-width="1.2"/>
<circle cx="851.7" cy="102.1" r="4.8" fill="#333333" stroke="#333333" stroke-width="1.2"/>
<circle cx="1069.1" cy="102.1" r="4.8" fill="#333333" stroke="#333333" stroke-width="1.2"/>
<polyline fill="none" stroke="#9467bd" stroke-width="2" points="308.3,286.0 417.0,286.0 525.7,286.0 634.3,286.0 851.7,102.1 960.4,194.0 1069.1,102.1"/>
<polygon points="308.3,280.0 302.3,286.0 308.3,292.0 314.3,286.0" fill="#9467bd" stroke="#9467bd" stroke-width="1.2"/>
<polygon points="417.0,280.0 411.0,286.0 417.0,292.0 423.0,286.0" fill="#9467bd" stroke="#9467bd" stroke-width="1.2"/>
<polygon points="525.7,280.0 519.7,286.0 525.7,292.0 531.7,286.0" fill="#9467bd" stroke="#9467bd" stroke-width="1.2"/>
<polygon points="634.3,280.0 628.3,286.0 634.3,292.0 640.3,286.0" fill="#9467bd" stroke="#9467bd" stroke-width="1.2"/>
<polygon points="851.7,96.1 845.7,102.1 851.7,108.1 857.7,102.1" fill="#9467bd" stroke="#9467bd" stroke-width="1.2"/>
<polygon points="960.4,188.0 954.4,194.0 960.4,200.0 966.4,194.0" fill="#9467bd" stroke="#9467bd" stroke-width="1.2"/>
<polygon points="1069.1,96.1 1063.1,102.1 1069.1,108.1 1075.1,102.1" fill="#9467bd" stroke="#9467bd" stroke-width="1.2"/>
<polyline fill="none" stroke="#1f77b4" stroke-width="2" points="90.9,377.9 199.6,286.0 308.3,286.0 417.0,286.0 525.7,286.0 634.3,286.0 960.4,194.0"/>
<circle cx="90.9" cy="377.9" r="4.8" fill="#1f77b4" stroke="#1f77b4" stroke-width="1.2"/>
<circle cx="199.6" cy="286.0" r="4.8" fill="#1f77b4" stroke="#1f77b4" stroke-width="1.2"/>
<circle cx="308.3" cy="286.0" r="4.8" fill="#1f77b4" stroke="#1f77b4" stroke-width="1.2"/>
<circle cx="417.0" cy="286.0" r="4.8" fill="#1f77b4" stroke="#1f77b4" stroke-width="1.2"/>
<circle cx="525.7" cy="286.0" r="4.8" fill="#1f77b4" stroke="#1f77b4" stroke-width="1.2"/>
<circle cx="634.3" cy="286.0" r="4.8" fill="#1f77b4" stroke="#1f77b4" stroke-width="1.2"/>
<circle cx="960.4" cy="194.0" r="4.8" fill="#1f77b4" stroke="#1f77b4" stroke-width="1.2"/>
<polyline fill="none" stroke="#2ca02c" stroke-width="2" points="90.9,377.9 199.6,286.0 417.0,286.0"/>
<rect x="86.1" y="373.1" width="9.6" height="9.6" fill="#2ca02c" stroke="#2ca02c" stroke-width="1.2"/>
<rect x="194.8" y="281.2" width="9.6" height="9.6" fill="#2ca02c" stroke="#2ca02c" stroke-width="1.2"/>
<rect x="412.2" y="281.2" width="9.6" height="9.6" fill="#2ca02c" stroke="#2ca02c" stroke-width="1.2"/>
<polyline fill="none" stroke="#d62728" stroke-width="2" points="199.6,286.0 308.3,286.0 417.0,286.0 525.7,286.0 634.3,194.0 960.4,194.0"/>
<polygon points="199.6,280.2 193.8,290.8 205.3,290.8" fill="#d62728" stroke="#d62728" stroke-width="1.2"/>
<polygon points="308.3,280.2 302.5,290.8 314.0,290.8" fill="#d62728" stroke="#d62728" stroke-width="1.2"/>
<polygon points="417.0,280.2 411.2,290.8 422.7,290.8" fill="#d62728" stroke="#d62728" stroke-width="1.2"/>
<polygon points="525.7,280.2 519.9,290.8 531.4,290.8" fill="#d62728" stroke="#d62728" stroke-width="1.2"/>
<polygon points="634.3,188.3 628.6,198.8 640.1,198.8" fill="#d62728" stroke="#d62728" stroke-width="1.2"/>
<polygon points="960.4,188.3 954.7,198.8 966.2,198.8" fill="#d62728" stroke="#d62728" stroke-width="1.2"/>
<circle cx="78.0" cy="445.0" r="5.0" fill="#333333" stroke="#333333" stroke-width="1.2"/>
<text x="90" y="449" class="legend">native_lite</text>
<polygon points="233.0,438.8 226.8,445.0 233.0,451.2 239.2,445.0" fill="#9467bd" stroke="#9467bd" stroke-width="1.2"/>
<text x="245" y="449" class="legend">native_muon</text>
<circle cx="388.0" cy="445.0" r="5.0" fill="#1f77b4" stroke="#1f77b4" stroke-width="1.2"/>
<text x="400" y="449" class="legend">streaming_identity</text>
<rect x="538.0" y="440.0" width="10.0" height="10.0" fill="#2ca02c" stroke="#2ca02c" stroke-width="1.2"/>
<text x="555" y="449" class="legend">streaming_lite</text>
<polygon points="698.0,439.0 692.0,450.0 704.0,450.0" fill="#d62728" stroke="#d62728" stroke-width="1.2"/>
<text x="710" y="449" class="legend">top_aware_muon</text>
</svg>