<svg xmlns="http://www.w3.org/2000/svg" width="1170" height="520" viewBox="0 0 1170 520">
<rect width="100%" height="100%" fill="white"/>
<style>text{font-family:-apple-system,BlinkMacSystemFont,Segoe UI,sans-serif;fill:#202124} .small{font-size:11px;fill:#5f6368} .title{font-size:18px;font-weight:700} .subtitle{font-size:12px;fill:#5f6368} .axis{stroke:#555;stroke-width:1} .grid{stroke:#ddd;stroke-width:.7} .legend{font-size:12px}</style>

<text x="24" y="32" class="title">Catalog full/historical: best final loss / BPB</text>
<line x1="90.9" x2="90.9" y1="80" y2="400" class="grid"/><text x="90.9" y="418" class="small" text-anchor="middle">32K</text>
<line x1="199.6" x2="199.6" y1="80" y2="400" class="grid"/><text x="199.6" y="418" class="small" text-anchor="middle">64K</text>
<line x1="308.3" x2="308.3" y1="80" y2="400" class="grid"/><text x="308.3" y="418" class="small" text-anchor="middle">128K</text>
<line x1="417.0" x2="417.0" y1="80" y2="400" class="grid"/><text x="417.0" y="418" class="small" text-anchor="middle">256K</text>
<line x1="525.7" x2="525.7" y1="80" y2="400" class="grid"/><text x="525.7" y="418" class="small" text-anchor="middle">512K</text>
<line x1="634.3" x2="634.3" y1="80" y2="400" class="grid"/><text x="634.3" y="418" class="small" text-anchor="middle">1M</text>
<line x1="851.7" x2="851.7" y1="80" y2="400" class="grid"/><text x="851.7" y="418" class="small" text-anchor="middle">4M</text>
<line x1="960.4" x2="960.4" y1="80" y2="400" class="grid"/><text x="960.4" y="418" class="small" text-anchor="middle">8M</text>
<line x1="1069.1" x2="1069.1" y1="80" y2="400" class="grid"/><text x="1069.1" y="418" class="small" text-anchor="middle">16M</text>
<line x1="80" x2="1080" y1="400.0" y2="400.0" class="grid"/><text x="72" y="403.0" class="small" text-anchor="end">0.856881</text>
<line x1="80" x2="1080" y1="320.0" y2="320.0" class="grid"/><text x="72" y="323.0" class="small" text-anchor="end">0.982847</text>
<line x1="80" x2="1080" y1="240.0" y2="240.0" class="grid"/><text x="72" y="243.0" class="small" text-anchor="end">1.108814</text>
<line x1="80" x2="1080" y1="160.0" y2="160.0" class="grid"/><text x="72" y="163.0" class="small" text-anchor="end">1.234781</text>
<line x1="80" x2="1080" y1="80.0" y2="80.0" class="grid"/><text x="72" y="83.0" class="small" text-anchor="end">1.360747</text>
<line x1="80" x2="80" y1="80" y2="400" class="axis"/><line x1="80" x2="1080" y1="400" y2="400" class="axis"/>
<polyline fill="none" stroke="#333333" stroke-width="2" points="308.3,377.1 417.0,377.9 525.7,375.0 634.3,368.3 851.7,328.6 1069.1,121.7"/>
<circle cx="308.3" cy="377.1" r="4.8" fill="#333333" stroke="#333333" stroke-width="1.2"/>
<circle cx="417.0" cy="377.9" r="4.8" fill="#333333" stroke="#333333" stroke-width="1.2"/>
<circle cx="525.7" cy="375.0" r="4.8" fill="#333333" stroke="#333333" stroke-width="1.2"/>
<circle cx="634.3" cy="368.3" r="4.8" fill="#333333" stroke="#333333" stroke-width="1.2"/>
<circle cx="851.7" cy="328.6" r="4.8" fill="#333333" stroke="#333333" stroke-width="1.2"/>
<circle cx="1069.1" cy="121.7" r="4.8" fill="#333333" stroke="#333333" stroke-width="1.2"/>
<polyline fill="none" stroke="#9467bd" stroke-width="2" points="308.3,376.8 417.0,377.9 525.7,373.9 634.3,366.3 851.7,322.1 960.4,233.7 1069.1,102.1"/>
<polygon points="308.3,370.8 302.3,376.8 308.3,382.8 314.3,376.8" fill="#9467bd" stroke="#9467bd" stroke-width="1.2"/>
<polygon points="417.0,371.9 411.0,377.9 417.0,383.9 423.0,377.9" fill="#9467bd" stroke="#9467bd" stroke-width="1.2"/>
<polygon points="525.7,367.9 519.7,373.9 525.7,379.9 531.7,373.9" fill="#9467bd" stroke="#9467bd" stroke-width="1.2"/>
<polygon points="634.3,360.3 628.3,366.3 634.3,372.3 640.3,366.3" fill="#9467bd" stroke="#9467bd" stroke-width="1.2"/>
<polygon points="851.7,316.1 845.7,322.1 851.7,328.1 857.7,322.1" fill="#9467bd" stroke="#9467bd" stroke-width="1.2"/>
<polygon points="960.4,227.7 954.4,233.7 960.4,239.7 966.4,233.7" fill="#9467bd" stroke="#9467bd" stroke-width="1.2"/>
<polygon points="1069.1,96.1 1063.1,102.1 1069.1,108.1 1075.1,102.1" fill="#9467bd" stroke="#9467bd" stroke-width="1.2"/>
<polyline fill="none" stroke="#1f77b4" stroke-width="2" points="90.9,350.3 199.6,358.6 308.3,361.8 417.0,363.0 525.7,359.3 634.3,350.4 960.4,246.5"/>
<circle cx="90.9" cy="350.3" r="4.8" fill="#1f77b4" stroke="#1f77b4" stroke-width="1.2"/>
<circle cx="199.6" cy="358.6" r="4.8" fill="#1f77b4" stroke="#1f77b4" stroke-width="1.2"/>
<circle cx="308.3" cy="361.8" r="4.8" fill="#1f77b4" stroke="#1f77b4" stroke-width="1.2"/>
<circle cx="417.0" cy="363.0" r="4.8" fill="#1f77b4" stroke="#1f77b4" stroke-width="1.2"/>
<circle cx="525.7" cy="359.3" r="4.8" fill="#1f77b4" stroke="#1f77b4" stroke-width="1.2"/>
<circle cx="634.3" cy="350.4" r="4.8" fill="#1f77b4" stroke="#1f77b4" stroke-width="1.2"/>
<circle cx="960.4" cy="246.5" r="4.8" fill="#1f77b4" stroke="#1f77b4" stroke-width="1.2"/>
<polyline fill="none" stroke="#2ca02c" stroke-width="2" points="90.9,351.6 199.6,358.5 417.0,363.7"/>
<rect x="86.1" y="346.8" width="9.6" height="9.6" fill="#2ca02c" stroke="#2ca02c" stroke-width="1.2"/>
<rect x="194.8" y="353.7" width="9.6" height="9.6" fill="#2ca02c" stroke="#2ca02c" stroke-width="1.2"/>
<rect x="412.2" y="358.9" width="9.6" height="9.6" fill="#2ca02c" stroke="#2ca02c" stroke-width="1.2"/>
<polyline fill="none" stroke="#d62728" stroke-width="2" points="199.6,357.5 308.3,361.7 417.0,362.4 525.7,356.8 634.3,351.6 960.4,256.3"/>
<polygon points="199.6,351.7 193.8,362.3 205.3,362.3" fill="#d62728" stroke="#d62728" stroke-width="1.2"/>
<polygon points="308.3,355.9 302.5,366.5 314.0,366.5" fill="#d62728" stroke="#d62728" stroke-width="1.2"/>
<polygon points="417.0,356.7 411.2,367.2 422.7,367.2" fill="#d62728" stroke="#d62728" stroke-width="1.2"/>
<polygon points="525.7,351.0 519.9,361.6 531.4,361.6" fill="#d62728" stroke="#d62728" stroke-width="1.2"/>
<polygon points="634.3,345.8 628.6,356.4 640.1,356.4" fill="#d62728" stroke="#d62728" stroke-width="1.2"/>
<polygon points="960.4,250.6 954.7,261.1 966.2,261.1" fill="#d62728" stroke="#d62728" stroke-width="1.2"/>
<circle cx="78.0" cy="445.0" r="5.0" fill="#333333" stroke="#333333" stroke-width="1.2"/>
<text x="90" y="449" class="legend">native_lite</text>
<polygon points="233.0,438.8 226.8,445.0 233.0,451.2 239.2,445.0" fill="#9467bd" stroke="#9467bd" stroke-width="1.2"/>
<text x="245" y="449" class="legend">native_muon</text>
<circle cx="388.0" cy="445.0" r="5.0" fill="#1f77b4" stroke="#1f77b4" stroke-width="1.2"/>
<text x="400" y="449" class="legend">streaming_identity</text>
<rect x="538.0" y="440.0" width="10.0" height="10.0" fill="#2ca02c" stroke="#2ca02c" stroke-width="1.2"/>
<text x="555" y="449" class="legend">streaming_lite</text>
<polygon points="698.0,439.0 692.0,450.0 704.0,450.0" fill="#d62728" stroke="#d62728" stroke-width="1.2"/>
<text x="710" y="449" class="legend">top_aware_muon</text>
</svg>